<?xml version="1.0" encoding="utf-8"?>
<!-- Generator: Adobe Illustrator 28.0.0, SVG Export Plug-In . SVG Version: 6.00 Build 0)  -->
<svg version="1.1" id="Layer_1" xmlns="http://www.w3.org/2000/svg" xmlns:xlink="http://www.w3.org/1999/xlink" x="0px" y="0px"
	 viewBox="0 0 151 171" style="enable-background:new 0 0 151 171;" xml:space="preserve">
<style type="text/css">
	.st0{opacity:0.5;fill:url(#SVGID_1_);}
	.st1{fill:url(#SVGID_00000008856791378054247460000008052844665134219692_);stroke:#000000;stroke-miterlimit:10;}
	.st2{opacity:0.48;fill:url(#SVGID_00000057140172844510060360000012262284975698308515_);}
	.st3{fill:url(#SVGID_00000081609201244903134220000011434807583129443475_);}
	.st4{fill:url(#SVGID_00000118389780491887227720000001218405323937696696_);}
	.st5{fill:url(#SVGID_00000153693329498541733010000014951515591711355809_);}
	.st6{fill:url(#SVGID_00000171713690111666803590000005503155651563813037_);}
	.st7{fill:url(#SVGID_00000169523347567786047870000000267490135275962538_);}
	.st8{opacity:0.48;fill:url(#SVGID_00000107589739658606505760000016318893131152678076_);}
</style>
<linearGradient id="SVGID_1_" gradientUnits="userSpaceOnUse" x1="14.4164" y1="154.8108" x2="135.4359" y2="35.491">
	<stop  offset="0.1816" style="stop-color:#0055B4"/>
	<stop  offset="0.3738" style="stop-color:#0F3E85"/>
	<stop  offset="0.6729" style="stop-color:#251D41"/>
	<stop  offset="0.8896" style="stop-color:#330816"/>
	<stop  offset="1" style="stop-color:#380006"/>
</linearGradient>
<path class="st0" d="M144.55,83.42c-4.47-51.96-19.04-80.35-42.42-80.35c-14.97,0-23.14-2.63-46.79,37.45
	c-12.48,21.14-50.51,6.8-42.42,61.62c3.74,25.37,41.18,57.39,79.86,45.31C122.4,138.2,147.67,119.66,144.55,83.42z M109.42,35.37
	c-4.29,0.33-11.82-2.15-14.64-4.88c-2.82-2.73-4.88-7.32-4.88-12.81c0-8.74,1.3-10.15,9.76-8.54c15.19,2.89,18.4,6.34,18.3,14.64
	C117.87,32.12,117.36,34.76,109.42,35.37z"/>
<linearGradient id="SVGID_00000078047153962051573950000004390386267731247018_" gradientUnits="userSpaceOnUse" x1="12.6542" y1="155.2677" x2="133.6128" y2="36.008">
	<stop  offset="0.1816" style="stop-color:#00DEFF"/>
	<stop  offset="0.1836" style="stop-color:#00DDFF"/>
	<stop  offset="0.4873" style="stop-color:#1880B7"/>
	<stop  offset="0.7335" style="stop-color:#293B82"/>
	<stop  offset="0.9101" style="stop-color:#341061"/>
	<stop  offset="1" style="stop-color:#380055"/>
</linearGradient>
<path style="fill:url(#SVGID_00000078047153962051573950000004390386267731247018_);stroke:#000000;stroke-miterlimit:10;" d="
	M141.76,84.19c-4.37-52.48-18.62-81.15-41.49-81.15c-14.64,0-22.63-2.65-45.76,37.83c-12.2,21.36-53.33,6.44-41.49,62.24
	c6.41,30.2,40.27,57.97,78.1,45.76C120.1,139.52,144.81,120.8,141.76,84.19z M96.61,42.7c-4.21,0-8.03-1.71-10.79-4.47
	c-2.76-2.76-4.47-6.57-4.47-10.79c0-8.42,6.83-15.25,15.25-15.25s15.25,6.83,15.25,15.25S105.03,42.7,96.61,42.7z"/>
<linearGradient id="SVGID_00000090256812243469264160000010523178745364953227_" gradientUnits="userSpaceOnUse" x1="69.2282" y1="64.5815" x2="144.809" y2="64.5815">
	<stop  offset="0" style="stop-color:#812AFF"/>
	<stop  offset="1" style="stop-color:#000000"/>
</linearGradient>
<path style="opacity:0.48;fill:url(#SVGID_00000090256812243469264160000010523178745364953227_);" d="M143.42,29.1l-1.84-1.84
	L69.23,99.61l1.5,1.83c0.47,0.57,1.33,0.63,1.87,0.13l69.77-64.36C144.8,34.78,145.87,31.55,143.42,29.1z"/>
<g>
	
		<linearGradient id="SVGID_00000062908868179790002060000004144671710451844265_" gradientUnits="userSpaceOnUse" x1="57.7997" y1="23.4292" x2="71.2232" y2="23.4292" gradientTransform="matrix(0.7055 0.7087 -0.7087 0.7055 79.3527 -5.4606)">
		<stop  offset="0" style="stop-color:#0093D4"/>
		<stop  offset="4.102111e-03" style="stop-color:#0092D4"/>
		<stop  offset="0.2157" style="stop-color:#006FD4"/>
		<stop  offset="0.3885" style="stop-color:#0059D4"/>
		<stop  offset="0.5" style="stop-color:#0051D4"/>
		<stop  offset="0.6077" style="stop-color:#005DCA"/>
		<stop  offset="0.8003" style="stop-color:#007BB1"/>
		<stop  offset="1" style="stop-color:#00A291"/>
	</linearGradient>
	<path style="fill:url(#SVGID_00000062908868179790002060000004144671710451844265_);" d="M146.31,18.9L146.31,18.9
		c-1.9-1.91-4.98-1.91-6.89-0.02L65.47,89.91l9.47,9.51l71.35-73.61C148.21,23.91,148.21,20.81,146.31,18.9z"/>
</g>
<radialGradient id="SVGID_00000178910958759625909890000011586640980450761397_" cx="26.0181" cy="142.9965" r="36.8543" gradientTransform="matrix(1.2169 0 0 1.241 15.8313 -56.1446)" gradientUnits="userSpaceOnUse">
	<stop  offset="0" style="stop-color:#4D0055"/>
	<stop  offset="0.4403" style="stop-color:#2852A6;stop-opacity:0.5597"/>
	<stop  offset="0.8214" style="stop-color:#0B94E6;stop-opacity:0.1786"/>
	<stop  offset="1" style="stop-color:#00ADFF;stop-opacity:0"/>
</radialGradient>
<ellipse style="fill:url(#SVGID_00000178910958759625909890000011586640980450761397_);" cx="47.49" cy="121.31" rx="44.85" ry="45.73"/>
<radialGradient id="SVGID_00000008145755104758712370000000886452659433664137_" cx="42.2755" cy="124.608" r="46.1141" fx="42.5568" fy="133.535" gradientTransform="matrix(0.7055 0.7087 -0.7087 0.7055 79.3527 -5.4606)" gradientUnits="userSpaceOnUse">
	<stop  offset="0.3548" style="stop-color:#1591FF"/>
	<stop  offset="0.4224" style="stop-color:#3B93FF"/>
	<stop  offset="0.5331" style="stop-color:#7396FF"/>
	<stop  offset="0.6156" style="stop-color:#9698FF"/>
	<stop  offset="0.6599" style="stop-color:#A399FF"/>
	<stop  offset="0.7363" style="stop-color:#A996FF"/>
	<stop  offset="0.8398" style="stop-color:#BA8CFF"/>
	<stop  offset="0.941" style="stop-color:#D27FFF"/>
</radialGradient>
<path style="fill:url(#SVGID_00000008145755104758712370000000886452659433664137_);" d="M46.47,99.36
	c-8.2,2.14-9.51,8.61-10.39,17.23c-1.86,18.16-34.13,21.06-8.24,20.26c14.24-0.44,14.24-0.4,19.42-1.25
	c10.51-1.73,16.85-9.89,17.73-17.65c0.78-6.86,1.48-10.08,4.78-13.36c3.89-3.87-6.01-12.96-9.47-9.51
	C58.99,96.37,57.93,96.37,46.47,99.36z"/>
<radialGradient id="SVGID_00000084520792830245431660000002772459844737957031_" cx="54.6811" cy="124.2283" r="39.259" fx="57.3364" fy="130.49" gradientTransform="matrix(0.7055 0.7087 -0.7087 0.7055 79.3527 -5.4606)" gradientUnits="userSpaceOnUse">
	<stop  offset="5.611105e-03" style="stop-color:#15EBFF"/>
	<stop  offset="0.0381" style="stop-color:#25E0FF"/>
	<stop  offset="0.1639" style="stop-color:#5DBAFF"/>
	<stop  offset="0.2575" style="stop-color:#80A2FF"/>
	<stop  offset="0.3077" style="stop-color:#8D99FF"/>
	<stop  offset="0.3752" style="stop-color:#9396FF"/>
	<stop  offset="0.4664" style="stop-color:#A48EFF"/>
	<stop  offset="0.5524" style="stop-color:#BB84FF"/>
	<stop  offset="0.8199" style="stop-color:#D27FFF"/>
</radialGradient>
<path style="fill:url(#SVGID_00000084520792830245431660000002772459844737957031_);" d="M65.87,105.02
	c0.14,3.09-5.97,4.56-8.22,9.04c-2.59,5.16-2.98,4.78-2.18,9.92c1.28,8.2-9.98,8.79-21.17,10.74c-29.35,5.11,12.08-0.84,14.69-11.18
	c1.34-5.31-1.32-6.23,0.89-11.22c4.77-10.78,18.57-9.02,8.22-9.04c-1.01,0-7.91,1.56-10.8,5.58c-4.33,6.03-1.75,8.63-3.05,11.64
	c-1.53,3.54-3.07,6.39-12.1,10.33c-24.62,10.73-2.16,2.15,5.2-9.48c3.94-6.23-0.73-9.96,2.63-16.39c2.91-5.58,12.52-5.58,16.84-8.16
	C58.87,95.58,65.76,102.6,65.87,105.02z"/>
<linearGradient id="SVGID_00000157296009331226012290000000072298738993908902_" gradientUnits="userSpaceOnUse" x1="57.7997" y1="80.6284" x2="71.2232" y2="80.6284" gradientTransform="matrix(0.7055 0.7087 -0.7087 0.7055 79.3527 -5.4606)">
	<stop  offset="2.793296e-03" style="stop-color:#3D5577"/>
	<stop  offset="0.0173" style="stop-color:#406586"/>
	<stop  offset="0.1006" style="stop-color:#53BDDB"/>
	<stop  offset="0.2207" style="stop-color:#2A60A9"/>
	<stop  offset="0.3074" style="stop-color:#355A8B"/>
	<stop  offset="0.5" style="stop-color:#4D4D4D"/>
	<stop  offset="0.5673" style="stop-color:#4D5957"/>
	<stop  offset="0.6873" style="stop-color:#4D7772"/>
	<stop  offset="0.7849" style="stop-color:#4D958C"/>
	<stop  offset="0.8771" style="stop-color:#67DE9B"/>
	<stop  offset="0.9916" style="stop-color:#4D6B67"/>
	<stop  offset="0.9964" style="stop-color:#4D6D68"/>
	<stop  offset="0.9981" style="stop-color:#4F746B"/>
	<stop  offset="0.9993" style="stop-color:#517F71"/>
	<stop  offset="1" style="stop-color:#548B76"/>
</linearGradient>
<path style="fill:url(#SVGID_00000157296009331226012290000000072298738993908902_);" d="M69.76,104.59L69.76,104.59
	c-3.44-2.88-6.61-6.06-9.47-9.51l0,0l5.19-5.17l0.1,0.07c3.64,2.53,6.79,5.69,9.3,9.34l0.07,0.1L69.76,104.59z"/>
<radialGradient id="SVGID_00000065063668202331452600000000910874007133295015_" cx="30.4091" cy="99.0789" r="36.8543" gradientTransform="matrix(0.7781 0 0 0.7768 24.1347 44.3953)" gradientUnits="userSpaceOnUse">
	<stop  offset="0" style="stop-color:#2A002A"/>
	<stop  offset="0.0787" style="stop-color:#3D0B35;stop-opacity:0.9213"/>
	<stop  offset="0.5352" style="stop-color:#A44775;stop-opacity:0.4648"/>
	<stop  offset="0.8517" style="stop-color:#E66C9C;stop-opacity:0.1483"/>
	<stop  offset="1" style="stop-color:#FF7BAC;stop-opacity:0"/>
</radialGradient>
<ellipse style="opacity:0.48;fill:url(#SVGID_00000065063668202331452600000000910874007133295015_);" cx="47.8" cy="121.36" rx="28.68" ry="28.63"/>
</svg>
